<svg id="Layer_1" data-name="Layer 1" xmlns="http://www.w3.org/2000/svg" viewBox="0 0 2272.9 2250.55"><defs><style>.cls-1{fill:#f9ddd2;}.cls-2{fill:#efc0b4;}.cls-19,.cls-3{fill:#b77e6c;}.cls-4{fill:#9b6456;}.cls-5{fill:#13182b;}.cls-6{fill:#cc9a89;}.cls-7{fill:#2e2928;}.cls-8{fill:#5c4642;}.cls-9{fill:#443331;}.cls-10{fill:#7382c7;}.cls-11{fill:#1b2348;}.cls-12{fill:#723f3f;}.cls-13{fill:#1e212c;}.cls-14{fill:#eae7e3;}.cls-15{fill:#c98989;}.cls-16{fill:#eceae8;}.cls-17{fill:#2a2421;}.cls-18{fill:#eae3de;}.cls-19{opacity:0.5;}.cls-20{fill:#b5756f;}.cls-21{fill:#a86562;}.cls-22{fill:#fd704b;}.cls-23{fill:#e05336;}</style></defs><title>orangeBack</title><path class="cls-1" d="M1.51,1282.88c13.27-149.62,112.8-287.09,253.23-370.68,97.08-57.79,129.4-130.26,140.5-246.75,9.13-95.81,3.27-195.18,37.56-285.12,41.18-108,139.35-190,250.64-221.2s233.39-14.17,337,37c115.75,57.17,215.28,156.44,343.36,172.73,106.8,13.58,212.48-34.14,320.14-33.37,140.23,1,275.58,92.86,328.27,222.78,67.32,166,5.32,367.39,88.83,525.85,30.81,58.47,79.13,105.75,114.77,161.4,90.81,141.79,76.08,358.14-64.53,450.85-135,89-318.82,37-472.08,88.57-170.43,57.35-285.71,236.75-462.75,268.28-136.55,24.32-264.22-45.33-384.4-99.4-277-124.6-583.81-135.2-765.2-417.79C13.35,1452.68-5.85,1365.91,1.51,1282.88Z"/><path class="cls-2" d="M1679.63,1786c129.09-43.44,279.84-13.4,404.86-56q-6.14-31-13.51-61.82a85.75,85.75,0,0,0-13-28.74c-.1-13.5-.38-27-1.19-40.48-2.65-44.15-26.09-187-74.89-244.66-16.62-41.42-68.45-67.69-105.9-86.4l-46.63-23.3-92.32-46.12c-83.18-41.56-166.41-83.14-251.78-120-28-12.1-56.28-23.67-84.53-35.25-19.84-8.13-42.16-20.84-63.42-25.35-15.53-29-23.66-78.07-55.05-91q-1.57-34.9-1.1-69.85a271.77,271.77,0,0,0,14.94-47.46,32.2,32.2,0,0,0,28.36,8.78c15-3,26.71-15.49,32.8-29.53s7.5-29.59,8.81-44.84,2.69-30.8,8.71-44.86c4-9.26,9.86-17.62,13.47-27,4.11-10.69,5.12-22.29,6.08-33.71l3.84-45.38c1.13-13.37,2.13-27.51-3.76-39.56s-21.35-20.52-33.12-14.08c-8.63,4.72-12.54,15.55-20.75,20.74,3-6.1,3.72-13.41,4.26-20.32,3.66-46.24,7.33-92.56,6.59-138.94-.17-11-.6-22-1.15-33-121.43-21.39-217.89-115.53-329.4-170.6-103.62-51.18-225.72-68.24-337-37a395.53,395.53,0,0,0-146.13,77.16c1,3.63,1.93,7,2.83,9.85,35,112,46.67,230.07,84.51,341.05,4.73,13.86,10.09,27.53,15.17,41.27-7-6.12-15-11.36-23.15-17.54-3.43-2.58-7.11-5.27-11.39-5.58-10.5-.75-16.13,12.25-16.86,22.76-4.55,65.3,54.34,119.13,62.19,184.12,1.38,11.45,1.16,23.18,4.26,34.3s10.47,22,21.58,25.11c1.21.34,2.16-1.95,2.88-6.17,5.23,17.93,12,35.32,21.1,51.6,21.62,38.53,53.44,67.94,88.69,93.5-.34,5.25.65,10.67.28,16l-.14-.64-.54.9c-31,8-62,17.79-92.41,27.9-125.65,41.71-244.28,98.61-363.9,157-25.91,12.65-53,26.45-74.1,45.52-24,19.15-42.24,43.13-56.54,70-6.17-1.8-13.23-.09-21.6,6.88-41.49,34.54-45.08,115.2-48,164-2.44,40.81-23.76,71.92-14.68,106.38C297.08,1816.22,564.09,1840,810.8,1945.38c23.14-104.21,66.26-194.6,155.1-259.8,58.93-43.25,135.13-66.27,206.63-51.1C1278.81,1657,1352,1755.91,1393,1856.53c7,17.24,13.82,35.37,27.35,48.15,39.21,37,85.5-18.39,116.1-40.33C1580.8,1832.56,1627.64,1803.48,1679.63,1786ZM662.08,573c0-1,0-2,.07-3h.08C662.19,571,662.14,572,662.08,573Z"/><path class="cls-3" d="M709,637.34c-3.43-2.58-7.11-5.27-11.39-5.58-10.5-.75-16.13,12.25-16.86,22.76-4.55,65.31,54.34,119.13,62.19,184.12,1.38,11.45,1.16,23.18,4.26,34.3s10.47,22,21.58,25.11c9,2.53,3.4-138,1.07-150.14-4.61-24.1-10.69-50-21.38-72.25C739.85,657.67,724.85,649.27,709,637.34Z"/><path class="cls-3" d="M1374.25,810.69c5-.84,6.4,6.43,7.2,11.44,2.42,15.11,20,24.54,35,21.56s26.71-15.49,32.8-29.53,7.5-29.59,8.81-44.84,2.69-30.8,8.71-44.87c4-9.26,9.86-17.62,13.47-27,4.11-10.69,5.12-22.29,6.08-33.71l3.84-45.38c1.13-13.37,2.13-27.51-3.76-39.56s-21.35-20.52-33.12-14.08c-9.18,5-13,16.94-22.35,21.65-5.52,2.78-12,2.54-18.06,3.84-14.24,3.06-25.48,14.85-31,28.34s-6.06,28.48-5.08,43C1380.41,715.56,1377.52,756.66,1374.25,810.69Z"/><path class="cls-4" d="M1441.63,685.41c1.14,7.71-.28,15.58-2.34,23.1-1.8,6.58-4.17,13.16-8.42,18.49-4.62,5.79-11.33,9.94-14.74,16.51-3.11,6-3.49,13.89-9,17.79-6.16,4.36-16.34-.92-16.31-8.47,0-7,6.65-11.82,11-17.28a31,31,0,0,0,6-25.8c-2.89-12.86-15.91-39.45-2.41-51.19C1420,645.83,1439.78,672.93,1441.63,685.41Z"/><path class="cls-5" d="M1351.37,1054.57c-.38,10.62-.62,21.43,2.21,31.67,2.52,9.11,7.38,17.41,12.71,25.21,5.69,8.33,14.19,17.14,24.09,15.23,5.45-1.05,9.85-5.36,12.29-10.36s3.19-10.62,3.63-16.16c1.69-21.36-.76-42.81-3.33-64.08-1-8.4-2.07-16.88-4.86-24.86-3.69-10.56-10.36-20-12.77-31-3.39-15.39-1.48-29.1-20.38-30.21C1352.09,981.14,1352.56,1021.41,1351.37,1054.57Z"/><path class="cls-4" d="M691.32,662a252.68,252.68,0,0,0,40.74,107.6c6.63,9.85,14,19.31,18.91,30.12A75.36,75.36,0,0,1,756.6,843c-2,12.05-6.49,26.15,1.7,35.22,1.2,1.32,2.83,2.51,4.61,2.31,2.63-.31,3.92-3.35,4.41-6,3.35-17.71-5.54-35.1-10.06-52.55-2.65-10.22-3.82-20.75-5-31.25C749,761.33,750.8,725,740.79,696.94c-3.3-9.27-9.81-15.54-17.16-21.83C719.72,671.77,687,644.75,691.32,662Z"/><path class="cls-4" d="M1454.57,627.8c3.76,20.23,7.54,40.6,7.41,61.17s-4.43,41.59-15.67,58.83c-2.84,4.35-6.13,8.5-7.83,13.41s-1.45,10.92,2.22,14.6c27.66-49.67,29.66-109.07,31-165.9.23-9.7-6.41-31.38-19.83-18.54C1443.95,598.94,1452.82,618.42,1454.57,627.8Z"/><path class="cls-3" d="M1373.57,862.44a1196.75,1196.75,0,0,0,8.33,181.32c1.94,15.87,5.1,28.49,14.71,41.26,45.24,60.11,38.66,153.25-14.58,206.41-31.08,31-73.77,47.76-116.59,57.51s-86.84,13.34-129.77,22.62c-17.84,3.86-36.13,8.72-54.1,5.51-15.73-2.81-29.7-11.56-42.91-20.56-29.87-20.34-62.22-39.84-90.54-62.29q-38.82-130.82-67.85-264.29c10.54-13.9,22.1-30.62,35.29-42a614.31,614.31,0,0,1,318.12-143.4c16.42-2.21,33.07-3.74,49.54-2,11.21,1.19,22.2,3.9,33.15,6.59C1335.87,853.9,1354.09,857.65,1373.57,862.44Z"/><path class="cls-4" d="M875.21,1205.66l-5-43.49c-1.72-14.89-4.37-30.76-3.31-45.77,1-13.61,6.14-26.85,10-39.82a122,122,0,0,0,4.87-22.94c.6-6.35-.95-12.89,0-19.11,3.86,4.41,19.08.55,23.82-2,8.74-4.66,18.16-7.36,27.78-9.59,21.38-5,43.36-7.51,64-15.28,20.67,73,49,144.64,92.93,206.47s104.48,113.56,176.35,137.81c-57.93,28.11-121.58,57-184.41,42.85-26.89-6-51.37-19.65-75.43-33.09-30.91-17.27-64-33-91.57-55.26-10.56-7-20.67-15.35-26.7-26.48-5.93-10.94-7.46-23.66-8.89-36Z"/><path class="cls-6" d="M889.7,279.53c-17,9.8-33.82,20.05-52.35,26.27-33.89,11.38-69.08,20.61-81.53,59.23-5.63,17.45.06,37.56-11,52.91-2.66,3.69-6.61,6.7-11.14,7.17a206.06,206.06,0,0,0-1.41,24.74c.05,63.06,23.5,124,18.68,187.3A837,837,0,0,0,759.87,838c6.08,36.52,14.81,73.19,32.93,105.48,41.62,74.17,121,114.58,190,158.74,13.86,8.86,28,17.86,43.92,22.06,15.33,4,31.53,3.41,47.25,1.3,100-13.47,183.14-84,247.17-161.95,14.44-17.58,28.28-35.77,39.44-55.59,46.7-83,41.49-186.56,12.79-277.34-26.1-82.55-14.44-177.17-12.46-263.73.47-20.57,1.59-41.34-2.28-61.54s-13.43-40.2-30.24-52.06c-19.69-13.89-45.51-14.48-69.61-14.32q-94.54.65-189,6.17c-26.8,0-54.08,5.38-81.21,6.4-19.09.72-38.48,1.5-56.61,7.52C917.14,264.08,903.36,271.66,889.7,279.53Z"/><path class="cls-3" d="M873.52,375a835.49,835.49,0,0,1,400.24-108.38c-21.65-18.07-48.12-29.59-75.29-37.16-35.77-10-73-13.39-110-16.26q-86.54-6.71-173.31-9.64c-30.54-1-78-3.24-100.44,22.49-8.57,9.82-7.7,22.92-18.66,30.85-11.34,8.21-28.55,1.95-38,14.82-3.19,4.36-4.21,9.88-5.15,15.2-7.65,43.33-11.32,87.38-21.08,130.46-5.31,23.43-32.85,67.36-13.64,90.27C767.19,456.28,810.36,410.88,873.52,375Z"/><path class="cls-7" d="M717,613.61c10,29.26,22.81,57.65,29.83,87.75,5.17-42.71,6.92-80.83,7.67-123.84.69-39-.45-78-4.51-116.79-4.24-40.48-12.5-93.25,24-122,5.19-4.1,11.17-7.7,14.28-13.55a35.81,35.81,0,0,0,3-9.87c.52-2.58,9.23-36.9,1.35-36.9a152.9,152.9,0,0,0-21.58-34c-2.93-3.5-6.31-7-10.76-8.05-3.88-.89-7.9.31-11.75,1.31-13.41,3.48-29.93,3.74-38.6-7.06-6.45-8-6.37-19.73-12.21-28.22-12-17.47-49.6-20.52-63.47-6.69-17.36,17.32-7.84,57.29-1.71,76.89C667.53,384.53,679.19,502.62,717,613.61Z"/><path class="cls-8" d="M1441.74,210.62c.83,24.4-4.6,51.2-4.6,71.89,0,48,5.49,95.72,6.24,143.66.73,46.38-2.93,92.7-6.59,138.94-.71,9-1.7,18.66-7.64,25.45-8.46,9.67-24,10.1-33,19.19-6.72,6.6-8.77,16.08-10,25.07-1.27,9.36-3.62,19.08-4.29,28.38-6.58-13.39-10.53-28.42-15.44-42.5l-15.85-45.49-15.85-45.49L1326.75,507c-2.11-6.06-7.57-15.36-7.57-21.71-4.4-12.64-8.86-25.53-9.19-38.91-.42-17,5.79-33.35,8.28-50.14,4.5-30.44-4.88-64.08-28.92-83.28-24.33-19.43-58.66-21.37-84.68-38.47-29.14-19.15-39.76-31.55-64.92-56.32a123.74,123.74,0,0,0-80.09-35.06c-47.53-2.26-91.56,22.84-132.49,47.12q-59.34,35.2-118.69,70.41c-42,25-53.25,32.93-93.43-.15-16.4-13.51-35.5-28-47.53-45.84-21.87-32.37-78.89-111.26-11.38-130,18.84-5.24,39.09-2.73,58.12-7.23,38.67-9.15,64.34-44.29,92.33-72.5,51.58-52,82.89-29.31,142.75-23.21,64.09,6.53,118.76-43.34,181.62-10.11,18.2,9.62,30.65,26.15,49.07,35.86,20.56,10.83,43.92,16.21,67.07,17,25.47.88,52.7-3,75,9.28,24.17,13.32,35.59,42,57,59.33,15.76,12.76,36.68,19.21,49.43,35C1437.93,179.53,1441.19,194.55,1441.74,210.62Z"/><path class="cls-9" d="M1325.46,476.28c5.47,24.2,8.24,50.26,13.84,73.5,2.31,9.57,5,19.75,12.29,26.33-6.84-42.62,6.21-101.94,30.17-138,4.68-7,10.07-13.88,12.4-22,4.65-16.19-3.77-33.26-2.9-50.07,1-19.49,14.22-36.29,18-55.43,5.18-26.39-6.51-53.79-7.88-80.16-1.35-26-11.44-23.58-28-40.94-5.92-6.2-8.39-14.86-12.94-22.12-10.55-16.82-31.11-24.42-50.68-27.75s-39.94-3.64-58.4-10.94c-28.49-11.27-50.09-38.32-80.29-43.46-39.16-6.67-79.69,26-116.8,11.82-19.76-7.56-33.05-26.93-52.61-35-18.12-7.48-40.4-3.52-54.84,9.74C939,79,933.45,88.44,925.27,95.18c-17,14-41.35,13.46-61.66,21.84-21.49,8.87-37.41,27.28-51.73,45.6s-28.42,37.67-48.25,49.82-47.34,15.23-65.41.59c-14.83-12-24.39-35.29-43.45-34.21-16.5.94-25.1,20.92-24.16,37.42,1.2,21.16,11.48,40.67,22.55,58.75,13.12,21.42,28.22,42.45,49.23,56.21s49.13,19,71.5,7.59c7.28-3.72,14.54-8.76,22.64-11.15,9.31-2.75,19.43-.44,29-1.57,10.23-1.21,20.09-4.53,29.44-8.78,20.26-9.2,38.33-22.47,57.26-34,16.86-10.28,35-19.92,54.79-22.62,20.77-2.83,41.89-.61,62.83-1.64,19.34-1,38.45-4.69,57.78-5.93,41.75-2.68,83.56,6.4,122.89,20.67a473.12,473.12,0,0,1,60.65,27c10.87,5.78,22,12.47,28.09,23.19,15.11,26.65-8.54,60.89.2,90.24,3.89,13.06,13.81,23.53,18.54,36.31A203.6,203.6,0,0,1,1325.46,476.28Z"/><path class="cls-5" d="M1781.52,1616.06c-18.67,41.56-32.33,85.2-43.73,129.31-11.55,44.69-20.86,90.2-23,136.31-1.95,42.78,2.33,85.56,6.59,128.17l12.07,120.5c1.67,16.68,3.44,33.72,10.53,48.91,20.51,44,76,57,124.18,62.33q68,7.54,136.47,8.81c65.53,1.21,136.2-3.72,187.18-44.92,7.68-6.21,15-13.49,18.35-22.78,2.83-7.84,2.6-16.42,2.18-24.74-7.09-142-56.71-279.45-61.79-421.51-1.34-37.36.43-74.81-1.81-112.13-3.66-61-47-310.14-141.92-263.29C1907.88,1409.85,1825.68,1517.76,1781.52,1616.06Z"/><path class="cls-10" d="M788.67,1081.12c-125.65,41.71-244.28,98.61-363.9,157-40,19.5-82.72,41.74-102,81.8-4.18,8.69-7.13,18.49-5.21,27.94,5.42,26.7,41.39,31.45,68.45,28.2,82.87-10,162.58-37.06,241.58-64,23.78-8.1,47.73-16.29,69.48-28.87,24.37-14.1,45.34-33.37,64.77-53.75s38.68-41.2,56-63.49c8.28-10.64,16.12-21.62,23.35-33,3.5-5.52,11.81-27.38,19.05-26.65,2.72.27,5.6,1.48,8.06.29,2-1,3-3.24,3.81-5.34a196.47,196.47,0,0,0,11.6-48.71C851.85,1060.69,820,1070.73,788.67,1081.12Z"/><path class="cls-10" d="M1956.58,1372.9c-46.8-15.33-97.67-12.95-145.35-25.29-62-16-114.75-55.77-165.69-94.6-72.79-55.48-184.5-125.22-223.5-211,23.37,2.75,48.57,17.5,70.69,26.56,28.25,11.58,56.5,23.16,84.53,35.25,85.37,36.84,168.6,78.42,251.78,120l92.32,46.12,46.63,23.3c37.57,18.77,89.6,45.14,106.06,86.78-11.5-11.48-20.7-19.12-37.64-19.12-10.61,1-21.41,5.74-28.16,14.18a3.71,3.71,0,0,1-1.34,1.18,4,4,0,0,1-1.39.24c-4.72.24-9.46.41-14.18.71-3.94.25-7.47,1.64-11.53,1.49C1971.77,1378.39,1964.13,1375.38,1956.58,1372.9Z"/><path class="cls-1" d="M1121.32,1364.92c80.6-.47,152-48.18,227-77.75,2.58-1,5.45-2,8.05-1.06,3.45,1.27,4.83,5.33,5.78,8.88l13.08,49.09,29.13,109.34q17.22,64.65,34.34,129.33c5.06,19.17,10.14,38.74,8.88,58.53-1.07,16.94-6.75,33.22-12.52,49.18-12,33.11-24.74,66.27-43.81,95.87-22.3,34.62-52.84,63.56-87.21,86.24-65.6,43.29-146.84,63.84-224.56,52.15S928.71,1868,887.22,1801.26c-17.79-28.62-29.7-60.58-38.14-93.21-25.21-97.48-19.44-199.56-2.72-297.93,4.25-25,9.23-49.88,14.63-74.65,7.35-33.78,17.9-64.33,16.14-99.06,10.13,6.58,18,16,26.38,24.7C957.64,1317.7,1041.51,1365.39,1121.32,1364.92Z"/><path class="cls-11" d="M1823.26,1266.86c62,29.16,121.39,63.52,180.7,97.83,2.36,1.36,4.92,3,5.61,5.62.93,3.55-2,6.86-4.59,9.42-84.34,82.14-142.22,191-163.12,306.9-9.64,53.44-11.77,108.77-30.74,159.65-18.57,49.83-52.91,94.27-60.84,146.86-7.33,48.64,7.08,105.1-24.68,142.67-18.56,22-48.17,30.59-76.24,36.76a905,905,0,0,1-233.08,20.2c-47.31-2-105.06-8.29-140.39-43.48-30.31-30.19-30.76-71.66-38.51-111.15q-13.94-71.09-25.56-142.62c-16.47-101.5-25.92-198.1-14.85-299.7,3.7-33.93,35.87-50.92,61-70.76,34.35-27.16,69.38-53.42,98.28-86.64a544.12,544.12,0,0,0,95.15-157.25c15.77-40,18.93-78.86,13.35-121.47-4-30.53-13.34-90.09-37.46-112.06,62.86,57.28,144.79,108.23,222.28,143.67C1707,1217.57,1766.1,1240,1823.26,1266.86Z"/><path class="cls-12" d="M1103.84,908.6A519.09,519.09,0,0,1,994,921.51c-14.14.14-28.94-.14-41.53,6.3L983,953.31c3.89,3.25,7.82,6.52,12.33,8.82,5.51,2.81,11.66,4,17.76,5.09a333.13,333.13,0,0,0,40.58,4.4c17.7.83,35.79.18,52.54-5.62s32.13-17.35,39.3-33.56c3.63-8.21,4.53-19-2-25.13-2.72-2.55-6.35-3.9-10-4.82a56.89,56.89,0,0,0-43.1,6.43"/><path class="cls-11" d="M239.88,1980.23a136.89,136.89,0,0,1-16.76-30.33,126.32,126.32,0,0,1-5.46-21.05c-12.64-65.25-17.58-134.65-11.66-201,3.4-38.12,11.82-75.58,20.22-112.92,26.58-118.18,31.93-282,150.15-348.68,19.47-11,40.57-18.7,61.61-26.23q184.33-66,373.32-117.81c12.63-3.46,25.39-6.9,38.46-7.71-21.08,123.11,11.78,257.25,85.21,358.28,15.4,21.19,32.73,41.35,43.67,65.15,30.41,66.16,5.59,143.09-16.5,212.48q-34.65,108.81-59.42,220.45c-11.88,53.52-9.17,143.86-64.7,174.55-29.9,16.52-66.19,6.78-97.75,1.19l-203.76-36.09c-98.45-17.44-187.23-50.21-271.38-104.89C256.15,1999.83,247.34,1990.53,239.88,1980.23Z"/><path class="cls-13" d="M990.84,1586.1a74.61,74.61,0,0,0-27-62.79c-15.35-12.41-30.73-24.69-46.05-37.2-14.51-11.85-29.12-23.79-41.1-38.19-35.43-42.57-43.77-100.78-50.73-155.73-4.27-33.64-8.53-67.76-3.79-101.34,7.07-50.11,33.53-95.07,59.45-138.54,19.12,83.25,16.58,174,29.57,258.48,7.71,50.11,22.61,98.66,40.21,146.11,16.79,45.29,44.77,87.62,41,137.5"/><path class="cls-13" d="M1260.91,1532.43c-17.43,12-56.05,30.39-61.28,53.31,6.61-29,22.8-51,39.24-75.45,15.27-22.7,32.55-44.06,45.88-68,22.14-39.8,42.3-78.46,56-122.66,33.68-108.84,72.68-230.63,38.29-343.91-2.35-7.75-4.8-15.46-5-23.59,33.9,13.7,40.79,69.29,58.81,97.09,12.55,19.38,33,32.9,44.23,53.07,16.88,30.31,9.31,67.86.4,101.39-17.29,65.1-38.25,130-72.67,187.86-22.73,38.24-51.63,73.38-86.83,100.78C1299,1507,1279.74,1519.44,1260.91,1532.43Z"/><path class="cls-14" d="M959,940.43c4,.54,8.19-.67,13.08-4.51,8.34,2.2,17,2.78,25.55,3.36l27.23,1.82a94.23,94.23,0,0,0,16.37.14c7.91-.85,15.52-3.7,23.4-4.86,5.8-.85,11.86-.84,17.17-3.45,6-3,10.68-9.14,17.24-10.06,7.08-1,15.38,4.25,20.8-.66,2.27-2.05,3.35-5.53,6.06-6.85,4.2-2,9.13,2.44,13.56,1,3.23-1,4.89-4.73,7.53-6.95,1.92-1.62,4.32-2.42,6.63-3.32,14.16-5.53,29.49-17.42,35.72-32.3-14,.11-29.14-7.1-43.79-7.78a170.09,170.09,0,0,0-48.88,4.77c-13.08,3.24-25.78,8-38.89,11.14-22.59,5.36-46,5.65-68.94,8.59-15,1.93-39.56,4.23-51.61,15.09-11.08,10,.08,19.29,7.57,26.26C949.52,936.34,954,939.76,959,940.43Z"/><path class="cls-15" d="M949.21,906.42c4.38-3.25,12.17-3.69,13.94,1.47a9.77,9.77,0,0,0,1.79-8c7.12-3.68,17.1.62,19.32,8.32,1.14-3.81,2.36-7.77,5.12-10.63s7.55-4.18,10.76-1.85c2.15,1.56,3.07,4.27,4.67,6.39s4.83,3.61,6.79,1.86c6.08-5.43,6.23-12.53,15.67-14.65,9.89-2.22,17,3.66,23.93,9.55-2.62-2.21,22.83-28.69,35.46-13.52,1,1.16,1.76,2.53,3.05,3.31,7.37,4.46,11.84-14.1,20.25-12.2,6,1.36,9.36,12.72,14.28,9,.1-8.34,12.11-13.5,18.23-7.83,2.33,2.16,4.2,5.57,7.38,5.55,4.66,0,6-7.26,10.4-8.66,5.5-1.74,11,6.6,16.13,3.88,3.18-1.7,2.89-6.77.3-9.29s-6.43-3.14-10-3.55c-30.87-3.56-74.2-5.89-102.28,9.88-5.52,3.1-10.71,7-16.81,8.7-4.19,1.16-8.59,1.22-12.94,1.28-33.65.4-62.52,4.34-95.42,11.11-7.59,1.56-19.68,8.36-11.8,17S943.26,910.83,949.21,906.42Z"/><path class="cls-3" d="M871.33,912.41a44.71,44.71,0,0,1,6.44-53.88c-6.22,5.45-14,10.69-17.75,18.08s-4.86,16.45-1.3,23.92C861.61,906.62,866.78,907.44,871.33,912.41Z"/><path class="cls-3" d="M1223,896.26c4.74-8.91,9.32-18.54,8.56-28.61-.57-7.62-4.16-14.65-7.67-21.44l-5.17-10c3.31,6.43,8.57,10.29,12.81,16.15s7.7,12.86,6.86,20C1237.09,883.84,1227.95,885.89,1223,896.26Z"/><path class="cls-9" d="M925.29,538.71,876.13,533c-19.82-2.29-40.27-4.54-59.44,1-20.5,5.93-39.45,20.14-50.34,38.4,19.73-13.72,36.54-19.7,60.74-22.17,33.61-3.43,66.42,15,100.12,12.55a5.33,5.33,0,0,0,2.79-.75c1.16-.84,1.48-2.4,1.7-3.81.84-5.18,1.67-10.59.14-15.61S930.51,539.32,925.29,538.71Z"/><path class="cls-9" d="M1208.9,518.2c30.48-3.49,61.1-1.2,92,6.46-9.53-4.86-18.31-10.64-27.58-16-28.88-16.7-64.63-15.31-96.14-8.12a261.09,261.09,0,0,0-47.88,16.14c-4.86,2.16-17.88,5.89-20.83,10.35-3.82,5.77,2.7,16.77,5.94,22.5,12.37-8.5,28.6-15,42.75-19.76A253.12,253.12,0,0,1,1208.9,518.2Z"/><path class="cls-16" d="M939.79,623.06c-3.94,3-9.35,2.77-14.3,2.93-12.29.4-24.2,4.09-36,7.44s-24,6.4-36.28,5.48-24.79-6.44-31.25-16.9c-1.52-2.46-2.7-5.47-1.76-8.2.77-2.23,2.77-3.78,4.74-5.08,17.36-11.45,39-13.91,59.67-15.82,8.8-.81,17.73-1.57,26.42,0C918.48,594.33,955.1,611.35,939.79,623.06Z"/><path class="cls-16" d="M1127,581c7-9.76,20.53-11.74,32.51-12.89l14.57-1.4c14-1.35,28.32-2.69,42.15.11s27.37,10.38,34,22.86a282.92,282.92,0,0,1-114.28,19.22C1119,608.26,1118,593.5,1127,581Z"/><path class="cls-17" d="M909,622.39c-2.6,4.23-7.2,6.76-11.68,8.91-5.34,2.56-10.91,4.89-16.8,5.49s-12.21-.69-16.62-4.65-6.43-10.16-8.15-16c-1.37-4.61-2.69-9.81-.37-14a13.72,13.72,0,0,1,4.56-4.59c5.22-3.49,11.49-5.07,17.7-6,6-.89,12.08-1.24,17.94.11C910.13,595,917.49,608.55,909,622.39Z"/><path class="cls-17" d="M1154.58,592.29c1,3.61,2.54,7.25,5.31,9.79,3.27,3,7.85,4.05,12.26,4.59a72,72,0,0,0,18.86-.21c9.11-1.31,14.4-9.21,15.38-18.17.86-7.86.8-16.27-6.51-20.55-5.28-3.09-11.51-4.14-17.62-4.48-7.9-.45-16.69.37-23.52,4.72C1149.6,573.77,1151.84,582.84,1154.58,592.29Z"/><path class="cls-18" d="M885.17,615.4c-.55,3.8,4.48,7,7.75,5s2.79-7.81-.73-9.36-8.07,1.85-7.69,5.67"/><path class="cls-18" d="M1184.13,582.44a6.11,6.11,0,0,0-7,5.61,6.37,6.37,0,0,0,6.68,6.19,6.65,6.65,0,0,0,5.72-7.21,7,7,0,0,0-7.29-5.78"/><path class="cls-19" d="M987.37,683.05c-1.86,12.57-4.16,21.36-12.2,31.1-8.48,10.27-19.29,17.94-28.32,27.66a79.54,79.54,0,0,0-12.32,17.49c-3.08,5.94-5.44,12.42-5.58,19.12-.27,12.73,7,21.47,19.91,20.65,12.25-.79,24.35-7.76,36.5-7.47,12.35.3,22.76,8.21,33.08,14,23.11,12.93,33.67,3.15,47.8-14.45a45.61,45.61,0,0,1,44.37-15.64c9.69,2.13,20.86,7.17,28.57.91,4-3.27,5.52-8.71,6.32-13.85,4.68-30.09-27.25-43-51.42-31.92-24.36,11.19-57.78,42.64-87.66,23.94-16.29-10.19-3-34.87-.09-49,5.46-27,4.84-54.89,4-82.27-.35-11.75-.84-24-6.64-34.26-3.74,8.34-4.66,15-6,24Z"/><path class="cls-3" d="M985.41,791.88c12.35.3,22.76,8.21,33.08,14,23.11,12.93,33.67,3.15,47.8-14.45a45.61,45.61,0,0,1,44.37-15.64c9.69,2.13,20.86,7.17,28.57.91,4-3.27,5.52-8.71,6.32-13.85,1.55-9.94-1.56-29.56-14.77-29.26a40,40,0,0,1,8.6,25.28c0,3.18-.54,6.51-2.41,9.09-3.28,4.54-9.8,5.41-15.28,4.27s-10.53-3.85-16-5c-9.82-2.13-20.21.89-28.7,6.25s-15.36,12.9-21.83,20.58c-4.75,5.63-9.92,11.76-17.13,13.26-6.89,1.44-13.89-1.77-19.74-5.68s-11.3-8.68-17.95-11-15.15-1.35-19.11,4.47"/><path class="cls-3" d="M994.06,656.16c1.42-14.64,3.28-29.36,4.54-44-.3.51-.76.57-1.19,1a1.42,1.42,0,0,0-.31.93c-2,23.15-6.29,46.22-9.69,69.23-1.86,12.57-4.16,21.36-12.2,31.1-8.48,10.27-19.29,17.94-28.32,27.66a79.54,79.54,0,0,0-12.32,17.49c-3.08,5.94-5.44,12.42-5.58,19.12-.27,12.73,7,21.47,19.91,20.65,12.25-.79,24.35-7.76,36.5-7.47-1.26.85-.32.59-.76-.86s-2.47-1.48-4-1.19l-19.57,3.73c-8.28,1.58-18.17,2.67-23.91-3.51-13.38-14.4,9.65-37.19,18.86-46.93,12.22-12.91,25.68-25.86,30.84-43.06C991.18,685.84,992.63,670.94,994.06,656.16Z"/><path class="cls-12" d="M952.84,927.88a39.07,39.07,0,0,1-17.58-3.5,93.2,93.2,0,0,1-14.52-8.48c-.65-.43-1.34-.93-1.41-1.57s.54-1.27,1.14-1.78c4.63-4,14.89-13.31,21-8.48,2.75,2.16,3.24,8.88,4.53,11.75A79.13,79.13,0,0,0,952.84,927.88Z"/><path class="cls-12" d="M1176.68,895.25a215.22,215.22,0,0,0,20.25-16.64,8.66,8.66,0,0,0,2.29-2.86,3.11,3.11,0,0,0-.53-3.45,4.82,4.82,0,0,0-3-.8c-5.84-.4-14-5.73-17.14,1C1176.49,876.85,1180.37,892.57,1176.68,895.25Z"/><path class="cls-20" d="M1155.19,862.89c-37.82-1.21-81.24-3.88-113.06,16.59a221,221,0,0,0-102.38,14.7C925.3,900,913,904.47,898,907c-.29,0,20.81,22.09,24.37,24.67,11.43,8.29,22,17.68,33.72,25.6,23.53,15.89,50.32,28.92,79.29,29.07a126.34,126.34,0,0,0,20.29-1.75c13.24-2.1,26.63-5.63,39.34-8.08,21.8-4.21,40-18.62,57-33,13.44-11.41,23.53-25.49,35.51-38.24,11.41-12.13,14.49-21.67,19.35-38A513,513,0,0,0,1155.19,862.89Zm6.08,38.13c-9.55,5.52-19.75,9.66-29.59,14.62-24.77,12.48-50.59,24-78.1,27.55-23,3-46.4.19-68.45-6.7-20.73-6.48-40.7-23-62.38-25,25.57-1.36,51-14.54,76.62-18.16,13.88-2,27.94-1.17,41.89-2.18,13.38-1,23.3-5.7,35.82-8.9,19.8-5.06,38.42-9.38,58.76-11,18.69-1.49,37.51,1,56,1.78C1181.93,882.27,1173.07,894.21,1161.28,901Z"/><path class="cls-3" d="M827.72,610.9a193,193,0,0,0-31,23.63L805,620.1c13.7-24,40-37.87,67-41.29,20.57-2.61,38.49.6,56.29,11.41,6.93,4.21,14.49,9.37,19.93,15.44,2.7,3,6.61,10.5-1.13,9.34-6.69-1-10.19-6.37-15.81-9.25-6.56-3.36-14.55-7-21.78-8.49a118.75,118.75,0,0,0-45.9-.36A109.42,109.42,0,0,0,827.72,610.9Z"/><path class="cls-3" d="M1235.4,574.87c-13.46-6-31.57-5.49-46.15-6.41-28-1.76-53.81,11.87-74.28,29.22-1,.87-2.68,1.72-3.56.69a2.38,2.38,0,0,1-.35-1.81,21.79,21.79,0,0,1,3.39-8.69A73.25,73.25,0,0,1,1149,557.22c17.45-7.54,40.24-6.33,58.62-3.33a116.87,116.87,0,0,1,35.18,11.85c9.88,5.24,20.19,18.19,30.93,20.06C1261.31,583.64,1247,580,1235.4,574.87Z"/><path class="cls-6" d="M905.32,630.72c-13.41,3-26.39,5.43-40.57,4.24s-28.06-4.21-42.18-5.55a6.47,6.47,0,0,0-4.27.59,6.59,6.59,0,0,0-2.15,3.65c-2.09,6.48-3.56,10.93.84,16.84,3.16,4.25,8.11,6.78,13.06,8.65,28.64,10.83,61.33,3.91,88.7-9.82,5.19-2.6,25.71-11,21.88-20.08-3.66-8.68-22.92-1.42-29,0Z"/><path class="cls-6" d="M1197.91,604.95l.33-.06c14.3-2.42,30.42-10.61,45.17-7.49,14,3,23.16,18.62,15.58,31.9-3.93,6.88-11.26,11.06-18.55,14.17a122.15,122.15,0,0,1-101.29-3.06c-9.89-5-19.87-12.41-22-23.27-.43-2.2-.45-4.65.86-6.46,6.41-8.91,26.8-5,35.65-4.36C1167.67,607.37,1184,607.25,1197.91,604.95Z"/><path class="cls-21" d="M1188.32,873c-17.29-.6-34.28-3.12-51.69-1.74-20.34,1.62-39,5.94-58.76,11-12.52,3.2-22.44,7.94-35.82,8.9-14,1-28,.22-41.89,2.18-34.18,4.83-67.06,26.37-102,13.61,14.68-1.88,28.73-7.31,42.4-12.76a221,221,0,0,1,102.38-14.7c.55.05,2.2-1.37,2.72-1.68q1.62-1,3.28-1.84,3.19-1.7,6.5-3.14a106,106,0,0,1,13.68-4.85,155.51,155.51,0,0,1,29.27-5c5.59-.47,11.07-.34,16.63-.7,6.33-.41,12.66-.77,19-.93a311.84,311.84,0,0,1,33.8,1c6.87.57,13.67,1.74,20.48,2.77,6.52,1,13,1.64,19.5,2.13-1-.07-1.23.79-1.88,1.33a10.89,10.89,0,0,1-2.52,1.34c-1.41.62-2.88,1.09-4.34,1.58A30.51,30.51,0,0,1,1188.32,873Z"/><path class="cls-22" d="M216.46,1647.23c107.22,194.65,334,235.2,537.44,216.82,60.31-5.45,126.08-19,182.68,10,9.16-21.37,39.73-112.53,27-133.29-7.54-12.32-22.18-18.15-36.09-22-104.09-28.91-217.2,8.3-322.37-16.4a281.71,281.71,0,0,1-143.35-84.53c-26.18-28.91-46-62.9-65.59-96.61l-61-104.92c-16.87-29-29.65-83.19-62.65-55.72-41.49,34.54-45.08,115.2-48,164C221.7,1571.66,193.67,1605.85,216.46,1647.23Z"/><path class="cls-22" d="M1815.95,1819.65c-53.8,62.86-142.65,93.53-223.77,77.24-66.1-12.8-123.43-51-187.87-66.73-64.83-15.87-115.1-.37-176.3,21.3-16.5,5.84-22.1,16.26-30.48-3.52-4.6-10.84-4.06-24-5.79-35.51-3.86-25.62-5.73-55.4,10.17-77.67,19.1-26.73,70.91-30.91,100.15-35.86,134.91-22.84,279.82-14,400.12-79.17,31-16.81,59.49-38.18,91.3-53.45s68.68-24.14,102.46-14c-15.12,68.81-32.11,133.41-57.19,199.25C1828.51,1778.4,1817.42,1791,1815.95,1819.65Z"/><path class="cls-23" d="M2072.53,1606.58l-98.41-50c-22.33-11.36-46.07-23-71.06-21.34-4.47.3-9.24,1.19-12.39,4.38s-4,8.08-4.65,12.58a1078.58,1078.58,0,0,1-70.43,255.05c-3.54,8.54-7.11,18.64-2.34,26.56,5.16,8.59,17,9.59,27,9.74q67.15.94,134,8c31.62,3.35,63.76,7.9,92.34,21.84,51.64,25.18,71.36,69.55,103.24,111.33,4.85,6.36,13.53,10.39,21.05,7.67,11.73-4.24,13.13-20,12.32-32.49a1580.85,1580.85,0,0,0-40.29-266.35C2152.53,1650.1,2109.55,1625.4,2072.53,1606.58Z"/></svg>